<svg width="80" height="80" viewBox="0 0 80 80" fill="none" xmlns="http://www.w3.org/2000/svg">
<path d="M1.4151 28.9934C-2.12015 43.2815 0.975597 55.8861 10.6228 66.4616C10.8738 66.7348 11.1299 67.008 11.3857 67.271C16.568 72.6 23.0228 75.8901 28.1372 78.1797C30.3324 79.1655 41.5959 80.3626 44.6434 79.8959C62.7545 77.1146 74.673 66.6108 78.824 49.0375C79.6166 45.5951 80.0112 42.0686 79.9998 38.5312C80.0192 30.1975 76.6072 20.5094 69.5705 13.2539C68.8459 12.638 68.1239 11.9999 67.4259 11.3815C65.912 10.0431 64.3472 8.65749 62.71 7.47545C50.2038 -1.57562 37.2096 -1.62654 24.09 3.17361C12.2114 7.51654 4.58324 16.2052 1.4151 28.9934ZM24.1409 7.45187C35.652 2.53303 47.202 1.66493 58.4672 9.03214C60.5268 10.3806 66.0182 14.9445 66.8826 15.63L66.9382 15.6721L66.984 15.7241C71.3791 20.5169 76.4116 29.2793 76.3006 38.2875C76.2639 42.1392 75.7567 45.9707 74.7911 49.6924C71.9296 60.3873 65.0886 68.1819 53.8767 73.5134C42.4786 79.1254 26.1329 73.452 21.7838 70.4997C16.9769 67.1201 12.7708 62.9159 9.34929 58.0707C3.98357 50.2585 2.77974 39.0298 5.66306 28.7644C7.01244 24.0248 9.37065 19.6534 12.5666 15.9672C15.7626 12.2809 19.7162 9.37215 24.1409 7.45187V7.45187Z" fill="#E0DBF5"/>
<path d="M25.7585 32.0541C26.3037 31.7481 26.8171 31.3854 27.2904 30.9718C27.4035 30.8794 27.5158 30.7877 27.6292 30.6978C29.2527 29.4027 30.8753 28.1066 32.497 26.8093C34.4094 25.2796 36.3239 23.7511 38.2404 22.2237C38.4094 22.0987 38.5883 21.9885 38.7752 21.8943C38.8183 21.8711 38.8623 21.8466 38.9088 21.8209C38.8682 22.6729 38.8272 23.5112 38.7855 24.3357C38.6865 26.3318 38.5925 28.2168 38.5212 30.13C38.3695 34.2187 38.222 40.1907 38.0792 45.9657C37.9566 50.9386 37.8402 55.6358 37.7248 59.0861C37.708 59.7621 37.7547 60.4382 37.8641 61.105C38.0212 62.1234 38.5301 62.6389 39.3763 62.6389H39.3787C40.3257 62.6389 40.8987 62.0616 40.9937 61.0158C41.0201 60.7239 41.0473 60.4318 41.0753 60.1396C41.188 58.9565 41.3044 57.7327 41.3194 56.5226C41.3802 51.6982 41.4277 44.8718 41.4738 38.2698C41.508 33.1255 41.5421 28.2667 41.5817 24.545C41.5914 24.2757 41.6178 24.0073 41.6606 23.7415C41.6685 23.6821 41.677 23.6207 41.6855 23.5575L41.9225 23.7825C42.2043 24.0491 42.4369 24.2696 42.6602 24.4993C45.836 27.7057 49.4765 30.3858 53.4517 32.4438L53.5733 32.5095C53.9178 32.7131 54.2846 32.8736 54.6661 32.9875C54.8925 33.0255 55.1243 33.0095 55.3437 32.9408C55.4321 32.9207 55.5202 32.9004 55.6066 32.8881L55.7863 32.8632L55.7521 32.6802C55.733 32.578 55.7231 32.4674 55.7135 32.3564C55.7199 32.0807 55.6424 31.8099 55.4919 31.5817C55.2594 31.3284 55.0018 31.1009 54.7232 30.9029C54.5131 30.7496 54.3131 30.5822 54.1245 30.4018C52.6615 28.9309 51.2016 27.4566 49.7447 25.9792C47.8562 24.0686 45.9644 22.1612 44.0692 20.2572C43.2777 19.4105 42.4058 18.6472 41.4666 17.9788C40.0279 17.0247 38.8295 17.1711 37.4615 18.4637C36.1532 19.7016 34.7294 21.0027 33.1124 22.4415C31.9344 23.4884 30.7525 24.5302 29.5665 25.5669C28.2886 26.6885 27.0137 27.8136 25.7417 28.942C25.2283 29.3746 24.7789 29.8819 24.4078 30.4478C24.2029 30.7867 24.1752 31.5182 24.431 31.8026C24.6125 31.9585 24.8301 32.0636 25.0626 32.1077C25.2952 32.1517 25.5349 32.1333 25.7585 32.0541V32.0541Z" fill="#E0DBF5"/>
</svg>
