<svg width="38" height="38" viewBox="0 0 38 38" fill="none" xmlns="http://www.w3.org/2000/svg">
<g clip-path="url(#clip0_87_57)">
<path d="M28.7927 8.30606C29.7583 7.96209 30.7772 7.89351 31.7686 8.10576C33.1981 8.40948 34.4912 9.31464 35.417 10.6595C37.4532 13.5721 38.1283 16.9704 37.7689 20.6919C37.6432 21.994 37.1335 23.1463 36.5191 24.2144C35.5712 25.8359 34.4278 27.2788 33.1267 28.4955C32.3226 29.2524 31.4142 29.8334 30.4429 30.2123C30.1996 30.3098 29.9585 30.4141 29.7216 30.5137C30.099 32.3104 29.7505 32.8099 28.2566 32.6873C27.9442 32.6616 27.6301 32.6375 27.3176 32.6472C26.7247 32.6656 26.1592 32.6219 25.7553 31.7455C25.5407 32.2939 25.3663 32.67 25.2446 33.0693C25.1218 33.4821 25.0246 33.9056 24.9536 34.3359C24.7114 35.7552 23.9746 36.7327 23.0167 37.5134C22.586 37.8644 22.128 37.8933 21.9492 37.6118C21.7577 37.3106 21.864 36.8684 22.2576 36.374C22.4742 36.1016 22.6964 35.8359 22.9241 35.5767C23.406 35.0405 23.7532 34.3523 23.9262 33.5905C24.226 32.2548 24.6893 31.0573 25.874 30.2626C24.4813 29.6107 23.2899 28.4577 22.4626 26.9608C21.9589 27.2848 21.5055 27.5762 21.0071 27.8971C21.095 28.206 21.1927 28.4873 21.2551 28.7795C21.4894 29.8767 20.9864 30.6406 20.0428 30.6505C19.7447 30.6538 19.3357 30.4096 19.1848 30.8271C19.0215 31.2813 18.9608 31.7795 19.0087 32.2711C19.0914 32.9779 19.3487 33.6523 19.4723 34.3554C19.5736 34.9047 19.6174 35.4671 19.6028 36.0296C19.5718 36.4337 19.4711 36.8256 19.3069 37.1801C19.018 37.8573 18.6304 38.1058 18.2707 37.9329C17.9229 37.766 17.813 37.2952 18.0669 36.5276C18.3671 35.6213 18.2826 34.7503 18.0846 33.8546C17.8488 32.7879 17.6559 31.7143 18.0098 30.5688C17.8255 30.4858 17.6613 30.4234 17.505 30.3395C16.8488 29.9871 16.7485 29.2992 17.2814 28.7057C17.527 28.4322 17.8115 28.2091 18.0694 27.9714L14.3609 26.0307L12.0728 30.488C12.3063 31.0182 12.5573 31.4793 13.0495 31.7573C13.5456 32.037 13.7939 32.6188 13.921 33.2516C13.9855 33.5561 14.0287 33.8665 14.0503 34.1797C14.0714 34.5884 14.1689 34.9862 14.3356 35.343C14.5023 35.6999 14.7338 36.007 15.013 36.2411C15.3157 36.5377 15.5981 36.8629 15.858 37.2133C16.1124 37.5346 16.0186 37.8923 15.656 37.939C15.3968 37.9718 15.1349 37.9482 14.8828 37.8692C14.303 37.6708 13.7897 37.2583 13.4152 36.6901C13.0408 36.1219 12.8242 35.4266 12.796 34.7024C12.7762 34.17 12.7318 33.6398 12.684 33.1106C12.6513 32.9837 12.6027 32.8637 12.5399 32.7544C11.5589 33.4304 10.5102 33.2853 9.49153 33.1879C8.66743 33.1089 8.43499 32.3414 8.88504 31.4792C8.95356 31.3477 9.0369 31.2275 9.15166 31.0397C8.98196 30.9213 8.84185 30.8051 8.68954 30.7204C7.83676 30.2468 6.97039 29.8075 6.12828 29.3084C0.968682 26.25 -0.726065 19.8306 0.534498 13.9915C0.986682 11.8964 1.82514 10.0733 3.1791 8.64951C4.80059 6.94428 6.65998 6.13602 8.82781 6.82406C9.22628 6.95054 9.60463 7.16934 10.0461 7.37018C10.1482 7.12327 10.2541 6.88411 10.348 6.63812C11.4683 3.70312 13.2818 1.72194 15.8789 0.818749C17.5748 0.22874 19.2913 -0.048063 21.0636 0.182691C24.0842 0.576091 26.2623 2.45386 27.7325 5.5816C28.1258 6.42476 28.4185 7.33605 28.7927 8.30606ZM27.4941 13.9699C27.4685 10.5798 26.9798 8.37396 26.0396 6.33922C24.9907 4.06968 23.4162 2.65544 21.2218 2.29233C19.353 1.98301 17.5824 2.39089 15.8542 3.19183C14.5761 3.79067 13.5032 4.89083 12.8093 6.31425C11.8211 8.25372 11.4654 10.3929 11.5472 12.6314C11.6375 15.1046 12.2162 17.4448 12.9714 19.7397C14.0724 23.0856 15.974 25.3428 18.8809 26.3381C19.1894 26.4439 19.4195 26.451 19.6791 26.2318C21.3036 24.8604 22.9715 23.5537 24.3296 21.7818C26.2488 19.2786 27.5594 16.4579 27.4941 13.9697V13.9699ZM9.63724 9.15876C9.15569 8.81438 8.60997 8.62098 8.05011 8.59631C6.43793 8.54638 5.18457 9.41522 4.17215 10.8434C2.69366 12.929 2.29381 15.4491 2.36691 18.0719C2.46214 21.4897 3.52585 24.4101 6.00027 26.2888C7.48899 27.419 9.11183 28.2939 10.6935 29.2957C11.7274 27.8284 12.7455 26.4964 13.3919 24.8684C10.2949 20.0435 9.12081 15.1409 9.63724 9.15876ZM23.6152 26.0083C23.8006 26.2627 23.9664 26.5004 24.1407 26.7275C24.8349 27.6294 25.7348 28.119 26.6577 28.5803C27.0174 28.76 27.3429 28.8335 27.7107 28.6721C27.9335 28.5829 28.1604 28.5093 28.3904 28.4518C30.4136 27.8982 32.255 26.6352 33.6816 24.8227C35.302 22.7786 36.4116 20.5598 36.0441 17.5795C35.774 15.3895 35.2506 13.3442 33.9727 11.6919C32.6739 10.0112 31.0554 9.52575 29.1724 9.93475C29.2548 10.8508 29.3628 11.684 29.3995 12.5218C29.5814 16.6906 28.2654 20.1882 25.9894 23.2183C25.2755 24.1679 24.466 25.0146 23.6152 26.0083Z" fill="#6F688F"/>
</g>
<defs>
<clipPath id="clip0_87_57">
<rect width="38" height="38" fill="white"/>
</clipPath>
</defs>
</svg>
