<svg width="38" height="38" viewBox="0 0 38 38" fill="none" xmlns="http://www.w3.org/2000/svg">
<path d="M18.6779 4.01575C18.7726 4.11028 18.8728 4.1991 18.9783 4.28179C21.9197 6.05247 24.8546 7.83343 27.8073 9.58532C29.4368 10.5522 31.1017 11.46 32.7375 12.4164C33.1235 12.665 33.4902 12.9422 33.834 13.2457C33.9502 13.34 34.0987 13.475 34.1106 13.6025C34.1791 14.3371 34.7451 14.9812 34.4645 15.7889C34.362 16.0842 34.4332 16.444 34.4475 16.7732C34.6507 21.5117 34.8639 26.2498 35.0569 30.9887C35.0817 31.5977 34.9989 32.2103 34.9834 32.8217C34.9773 33.0171 35.0043 33.212 35.0634 33.3984C35.2852 34.0708 35.0554 34.6303 34.3816 34.8571C34.0395 34.9637 33.6826 35.0161 33.3242 35.0125C28.8014 35.0447 24.2784 35.0693 19.7555 35.086C16.3374 35.1009 12.919 35.1345 9.50124 35.1069C7.11291 35.0875 4.72586 34.9745 2.33798 34.913C1.74495 34.8981 1.3866 34.6943 1.10871 34.1033C0.789721 33.4381 0.614191 32.7141 0.593247 31.9775C0.450548 27.5417 0.294012 23.1064 0.15582 18.6704C0.128782 17.8045 0.1609 16.9367 0.169461 16.0699C0.161955 15.9431 0.175351 15.8158 0.208922 15.6932C0.75208 14.1871 1.22858 12.6531 1.86621 11.1877C3.42015 7.5588 5.77817 4.32435 8.76472 1.72478C9.33086 1.24483 9.93498 0.810979 10.5714 0.427425C11.3337 -0.0436526 11.6322 0.0277634 12.3263 0.603525C12.6082 0.8254 12.9109 1.01973 13.2304 1.18378C14.3334 1.78385 15.4521 2.35587 16.5474 2.96921C16.935 3.18619 17.1933 3.15172 17.5801 2.90597C18.4482 2.36886 19.3458 1.88054 20.269 1.44325C20.595 1.29456 20.9534 1.23011 21.3112 1.25594C21.5515 1.27219 21.9011 1.45443 21.9733 1.64694C22.0442 1.83558 21.8925 2.20062 21.7195 2.36376C21.4491 2.61891 21.0848 2.78311 20.7473 2.96101C20.0966 3.30519 19.4355 3.63206 18.6779 4.01575ZM31.8173 14.2952C26.9553 11.3491 22.3158 8.13122 17.3611 5.40198C17.2148 5.57139 17.1263 5.66175 17.0523 5.76256C16.9643 5.88186 16.8886 6.01161 16.7747 6.18743C16.9781 6.35274 17.1722 6.52908 17.3559 6.71562C18.6241 8.14809 18.5587 10.5545 17.1327 11.6814C15.8859 12.6664 14.4174 13.1228 12.8044 12.8821C11.5243 12.6911 10.7117 11.7669 10.6149 10.4838C10.4422 8.19359 12.2145 5.92302 14.4973 5.64938C15.2202 5.56274 15.6152 5.27377 15.8616 4.6385L10.8974 1.67349C6.83322 5.25914 3.96155 9.68675 2.48379 15.0348C4.37913 15.257 29.2815 14.7466 31.8173 14.2952ZM1.97139 16.8925C1.86624 17.2951 2.10293 20.6368 2.32389 21.36C3.69305 21.36 5.07734 21.4112 6.45672 21.3497C9.845 21.1988 13.2311 21.0084 16.6177 20.8111C21.4144 20.5318 26.2098 20.2318 31.0059 19.9413C31.4855 19.9114 31.9653 19.8874 32.4653 19.8596V16.5201C27.3616 16.6543 22.3072 16.8419 17.2512 16.9033C12.1656 16.9652 7.07852 16.9013 1.97139 16.8925ZM32.5969 28.7739L2.73521 29.4874C2.77727 30.1187 2.82686 30.7483 2.85916 31.3788C2.89115 32.0041 2.90574 32.6303 2.92752 33.2429C5.04052 33.4964 31.6399 32.954 32.7384 32.6334C32.6918 31.3526 32.6444 30.0624 32.5969 28.7741V28.7739ZM24.5446 26.8767C25.5961 26.8767 26.6132 26.8732 27.6292 26.8782C28.1196 26.8804 28.5183 26.7896 28.6924 26.2369C28.764 26.0097 28.9881 25.8268 29.1526 25.6318C30.059 24.5581 30.9701 23.487 31.8749 22.4115C31.9916 22.2726 32.083 22.1132 32.2355 21.8896C30.5102 22.0223 28.9007 22.1535 27.2886 22.264C26.9432 22.2877 26.733 22.3909 26.5971 22.7345C26.3905 23.254 26.1184 23.7485 25.8675 24.2499C25.4272 25.1316 24.9813 26.0107 24.5446 26.8767ZM15.9331 27.2472C16.9339 25.677 17.8385 24.2578 18.7989 22.7512C17.1663 22.8284 15.6565 22.906 14.146 22.9671C13.8135 22.9805 13.6571 23.1461 13.5188 23.4251C12.9196 24.6352 12.2971 25.834 11.6862 27.0385C11.636 27.1627 11.5931 27.2894 11.5574 27.4184L15.9331 27.2472ZM22.5222 27.0458C23.0317 25.3404 24.2616 24.053 25.0846 22.4081L20.6426 22.6408L18.0848 27.1773L22.5222 27.0458ZM9.29809 27.531C10.2144 26.0301 11.0832 24.6082 12.0319 23.0544C10.6915 23.114 9.51708 23.1465 8.34724 23.2372C8.15317 23.2521 7.91998 23.4861 7.80552 23.678C7.28385 24.5515 6.79922 25.447 6.29903 26.3324C6.0641 26.7481 5.82169 27.1598 5.50279 27.7107L9.29809 27.531ZM12.0711 9.78545C12.0547 10.9249 12.5441 11.4458 13.5003 11.3864C14.2711 11.3389 15.0167 11.0961 15.6662 10.6814C16.2951 10.2844 16.4098 9.66735 16.3235 9.00882C16.2972 8.7005 16.177 8.40741 15.9789 8.1685C15.7808 7.92961 15.5143 7.75621 15.2145 7.67134C14.3573 7.42022 13.4824 7.65746 12.7751 8.07068C12.1673 8.42529 12.1497 9.24354 12.0708 9.78545H12.0711ZM6.53519 23.233H2.39561C2.48484 24.7206 2.57399 26.2026 2.66201 27.6673C3.57664 27.8228 3.55374 27.8099 3.93498 27.153C4.33108 26.4705 4.76792 25.8109 5.20443 25.1524C5.59678 24.5603 6.01277 23.9837 6.5349 23.233H6.53519ZM32.4674 26.4336V24.2958L32.3247 24.2627L30.7334 26.6169L32.4674 26.4336Z" fill="#6F688F"/>
</svg>
