<svg width="38" height="38" viewBox="0 0 38 38" fill="none" xmlns="http://www.w3.org/2000/svg">
<g clip-path="url(#clip0_87_51)">
<path d="M31.6121 12.4551C31.0459 12.4652 30.7125 12.2951 30.51 11.8511C30.3172 11.4291 30.4433 11.0503 30.6481 10.7012C30.7556 10.5169 30.8957 10.3599 31.0596 10.24C31.9298 9.62184 32.797 8.99464 33.6953 8.4322C33.9928 8.26806 34.3256 8.20403 34.6544 8.24773C34.8067 8.26738 34.9527 8.3275 35.0806 8.42316C35.2084 8.51883 35.3144 8.64734 35.3901 8.79822C35.4656 8.94907 35.5085 9.11801 35.5154 9.29122C35.5222 9.46444 35.4927 9.637 35.4292 9.79485C35.2691 10.1937 35.0153 10.5351 34.6953 10.7819C33.891 11.3339 33.0397 11.8004 32.1957 12.275C32.0084 12.3621 31.8124 12.4226 31.6121 12.4551Z" fill="#6F688F"/>
<path d="M5.21474 13.7873C5.03534 13.673 4.62894 13.5121 4.34288 13.2063C3.88233 12.7035 3.46431 12.1531 3.09426 11.5623C2.89695 11.2617 2.78385 10.9011 2.76953 10.5271C2.77622 9.8446 3.41178 9.35224 4.05484 9.59555C4.58846 9.78195 5.08424 10.0858 5.51365 10.4897C5.94307 10.8936 6.29764 11.3895 6.55699 11.949C6.99065 12.9067 6.39307 13.8183 5.21474 13.7873Z" fill="#6F688F"/>
<path d="M28.2822 0.0976921C29.1375 0.0917892 29.6522 0.815438 29.4831 1.57581C29.4363 1.82225 29.336 2.05158 29.191 2.24302C28.6117 2.91964 28.0273 3.59591 27.397 4.20963C27.091 4.50735 26.7047 4.7298 26.24 4.55271C25.6991 4.34648 25.4379 3.84326 25.6136 3.23397C25.6588 3.05147 25.7349 2.8806 25.8375 2.73074C26.3816 2.01741 26.9185 1.29357 27.5053 0.626907C27.7465 0.35279 28.1068 0.212983 28.2822 0.0976921Z" fill="#6F688F"/>
<path d="M13.0886 3.6659C13.0396 4.22483 12.833 4.6386 12.3873 4.88192C11.9704 5.10918 11.6097 4.9531 11.32 4.62881C10.6909 3.95436 10.218 3.1153 9.94305 2.18554C9.75958 1.52829 9.93212 0.978976 10.3531 0.683646C10.8007 0.370054 11.2874 0.41411 11.7126 0.928954C12.3612 1.71552 12.9053 2.58825 13.0886 3.6659Z" fill="#6F688F"/>
<path d="M37.8177 18.2174C37.8049 17.7426 37.7306 17.2725 37.5965 16.8223C37.4021 16.2252 37.0518 15.8195 36.6128 15.6832C36.1687 15.5447 35.6792 15.6945 35.2351 16.1019C34.9 16.4091 34.5715 16.7446 34.2548 17.0687C34.1243 17.2014 33.9939 17.336 33.8634 17.4668L32.1239 19.2162C30.7043 20.6436 29.2838 22.071 27.8622 23.4982C27.7602 23.5947 27.6528 23.6834 27.5404 23.7635C27.495 23.7976 27.4482 23.8317 27.4013 23.8697C27.3695 23.8943 27.3333 23.9103 27.2953 23.9166C27.2573 23.923 27.2184 23.9197 27.1817 23.9066C27.1447 23.8937 27.1111 23.8712 27.0831 23.841C27.0552 23.8107 27.0338 23.7734 27.0208 23.7323C26.7041 22.7522 26.3958 21.777 26.0874 20.8056C25.4024 18.6473 24.6932 16.4139 23.9509 14.253C22.9168 11.2462 21.8074 8.32945 20.7651 5.62463C20.4931 4.97093 20.1235 4.37526 19.6724 3.86373C19.2668 3.38412 18.8227 3.34815 18.2345 3.75194C17.7553 4.0779 17.5508 4.64273 17.3345 5.23985L17.3145 5.29519C17.0984 5.88659 16.8846 6.47926 16.6727 7.07324C16.0241 8.87399 15.3538 10.7391 14.6416 12.5475C13.5652 15.2825 12.4009 18.0292 11.2999 20.6086C10.9262 21.4842 10.519 22.3258 10.0883 23.2167C9.89255 23.6226 9.69276 24.0356 9.4933 24.4602C9.47722 24.4949 9.45499 24.5253 9.42803 24.5497C9.40106 24.574 9.36992 24.5919 9.33657 24.6021C9.30322 24.6122 9.26837 24.6144 9.23422 24.6087C9.20007 24.6028 9.16733 24.5892 9.13809 24.5683L8.43077 24.0658C7.98162 23.7493 7.57275 23.4613 7.16552 23.1693C6.59242 22.76 6.01927 22.3499 5.44606 21.9391C4.32334 21.1336 3.19944 20.3311 2.07433 19.5318C1.82206 19.323 1.52306 19.1981 1.21126 19.1718C0.981613 19.1801 0.762454 19.2824 0.594614 19.4599C0.100124 19.9185 -0.038988 20.4853 0.170582 21.1939C0.304643 21.6506 0.485673 22.1057 0.659853 22.5473L0.668334 22.5657C0.80908 22.9242 0.963197 23.2861 1.11063 23.6368C1.38886 24.2983 1.67884 24.9834 1.91173 25.6843C2.06089 26.1278 2.21063 26.572 2.36088 27.0169C3.32116 29.8619 4.31323 32.8038 4.96184 35.8327C5.18136 36.8602 5.70586 37.4156 6.56551 37.5311C6.80183 37.5634 7.03847 37.5975 7.27283 37.6316C8.23712 37.7958 9.21036 37.884 10.1855 37.8951C12.4009 37.863 14.6531 37.77 16.8319 37.6809C17.7904 37.641 18.7484 37.6032 19.7059 37.5673C21.2779 37.5103 22.8499 37.4558 24.4218 37.4042L26.2267 37.3417C26.3725 37.3378 26.5183 37.3321 26.6657 37.3284C26.8249 37.3245 26.9859 37.3188 27.1467 37.3132C27.7048 37.2948 28.2629 37.2695 28.8208 37.2468C30.1908 37.19 31.6044 37.1312 32.9987 37.1218C33.6422 37.1179 34.0964 36.8635 34.43 36.3238C34.6598 35.9274 34.8344 35.4933 34.9478 35.0368L35.1288 34.3657C35.8678 31.6286 36.6304 28.7966 37.0794 25.9308C37.1231 25.652 37.1682 25.3753 37.2118 25.0966C37.5696 22.8576 37.9416 20.5374 37.8177 18.2174ZM32.232 33.8344C32.216 33.8844 32.1878 33.9281 32.1508 33.9608C32.1138 33.9934 32.0692 34.0135 32.0226 34.0189C31.8215 34.0436 31.6137 34.072 31.4042 34.1004C30.925 34.1668 30.4272 34.2351 29.9244 34.2596C29.0998 34.2994 28.2621 34.3279 27.4525 34.3518C26.3733 34.3887 25.2571 34.4238 24.1628 34.492C22.8876 34.5736 21.5904 34.6929 20.3369 34.8086C19.6163 34.875 18.8956 34.9414 18.1751 35C17.1227 35.0873 16.2444 35.1574 15.3295 35.1897C13.0754 35.2712 10.7845 35.3372 8.56907 35.402L7.47147 35.4341H7.44619C7.34425 35.4317 7.24274 35.4182 7.14301 35.3942C7.10941 35.3867 7.07598 35.3791 7.04401 35.3758C6.99644 35.3684 6.95175 35.3457 6.91522 35.3105C6.87869 35.2751 6.85186 35.2288 6.83787 35.1768L3.92704 24.4672C3.91157 24.4121 3.91151 24.3527 3.92686 24.2973C3.94219 24.242 3.9722 24.1935 4.01279 24.1581C4.05338 24.1226 4.10262 24.1022 4.15383 24.0996C4.20502 24.0968 4.25571 24.1119 4.29904 24.1429L4.67611 24.4065C4.9258 24.5809 5.15543 24.74 5.38164 24.9031C5.70335 25.1344 6.02514 25.3645 6.34697 25.593C7.14464 26.1636 7.97086 26.7513 8.7669 27.3615C9.27623 27.752 9.72212 27.9018 10.0891 27.807C10.4479 27.7147 10.7644 27.3938 11.0544 26.8271L11.3153 26.3209C11.808 25.3656 12.3175 24.3761 12.7414 23.3695C14.144 20.0258 15.5501 16.614 16.9094 13.3139C17.4456 12.0117 17.983 10.7095 18.5215 9.4073C18.5667 9.29662 18.6136 9.18923 18.6807 9.03963L18.8097 8.74577C18.8304 8.69645 18.8637 8.6552 18.9051 8.6272C18.9467 8.5992 18.9945 8.58575 19.0427 8.58846C19.0908 8.58979 19.1377 8.60674 19.1774 8.63732C19.2172 8.66791 19.2484 8.7108 19.2671 8.7609C19.465 9.28792 19.6644 9.79778 19.8605 10.2982C20.2861 11.3866 20.6883 12.4135 21.0319 13.4807C21.8179 15.9278 22.587 18.4244 23.3328 20.8408C23.7601 22.2247 24.1892 23.6091 24.6199 24.9939C24.8328 25.7 25.0811 26.3918 25.3639 27.0656C25.4569 27.3115 25.5996 27.5292 25.7808 27.7011C25.9618 27.873 26.1761 27.9942 26.4064 28.0551C26.8572 28.1556 27.3331 27.9793 27.7486 27.5603C28.3805 26.9236 29.009 26.2809 29.6374 25.6402C30.1888 25.0772 30.74 24.5156 31.2915 23.9551C31.9936 23.2464 32.6979 22.5392 33.4046 21.8338L34.3505 20.8878C34.3854 20.853 34.428 20.8295 34.4738 20.8203C34.5197 20.8109 34.567 20.8161 34.6103 20.8349L34.7845 20.9126C34.8378 20.9362 34.8827 20.9795 34.9112 21.0358C34.9399 21.092 34.9507 21.1575 34.9421 21.2215C34.4274 24.9369 33.7034 29.3419 32.232 33.8344Z" fill="#6F688F"/>
</g>
<defs>
<clipPath id="clip0_87_51">
<rect width="38" height="38" fill="white"/>
</clipPath>
</defs>
</svg>
