<svg width="23" height="28" viewBox="0 0 23 28" fill="none" xmlns="http://www.w3.org/2000/svg">
<g clip-path="url(#clip0_4_46)">
<path d="M18.8959 6.87249C19.4033 6.82044 19.9266 6.79969 20.4326 6.77946C20.6349 6.77144 20.8372 6.76339 21.0396 6.75398C21.9098 6.71096 22.486 6.31261 22.6201 5.66122C22.988 3.87559 22.9983 2.41795 22.6533 1.07369C22.4809 0.402326 21.959 0.0512967 21.1905 0.0824785C20.4288 0.114169 19.6506 0.133377 18.8979 0.151832C16.9617 0.199432 14.9592 0.248554 13.0272 0.515318C9.57903 0.991318 7.42004 2.83464 6.94681 5.70591C6.8289 6.53895 6.76679 7.37701 6.76086 8.21599C6.75109 8.54945 6.74101 8.89436 6.72373 9.23189C6.7108 9.48478 6.71395 9.74187 6.71726 10.0138C6.71846 10.1092 6.71967 10.2073 6.72012 10.3097C6.40173 10.3189 6.09566 10.3274 5.79847 10.3352C5.04367 10.3558 4.33082 10.3753 3.62594 10.4039L3.31627 10.4159C2.69477 10.4299 2.07463 10.4729 1.45868 10.5444C0.579415 10.6606 0.253216 10.9653 0.210974 11.7086C0.14453 12.8922 0.0768706 14.2679 0.115204 15.6303C0.147825 16.7884 0.757863 17.2721 2.22084 17.2993C2.82214 17.3103 3.43202 17.2954 4.02175 17.2806C4.39336 17.2713 4.7776 17.2616 5.15462 17.2588C5.37987 17.2591 5.60492 17.2697 5.82883 17.2904C5.88896 17.2949 5.94909 17.2993 6.00637 17.3031C6.0214 17.3356 6.03416 17.3644 6.04619 17.3904C6.06935 17.431 6.08557 17.4742 6.09431 17.5187C6.10754 20.2251 6.12062 23.1097 6.12332 26.0067C6.12467 27.3956 6.52094 27.7536 8.14281 27.8304C9.46854 27.8931 10.8186 27.902 12.1233 27.9106L12.6225 27.9139C12.6676 27.9139 12.7103 27.9139 12.753 27.9139C14.6568 27.9139 15.0412 27.5851 15.2744 25.8781C15.3195 25.5709 15.3452 25.2619 15.3514 24.9524C15.3698 23.2214 15.3816 21.4624 15.3933 19.7609L15.3969 19.2047C15.3992 18.8604 15.3989 18.5163 15.3981 18.1402V17.6893C15.7506 17.6893 16.0865 17.6899 16.4106 17.6903C17.2073 17.6916 17.958 17.6925 18.6955 17.6876C19.7684 17.6806 20.5445 17.239 20.882 16.4442C21.3874 15.2525 21.8719 13.9466 22.3633 12.4521C22.4902 12.0661 22.4405 11.7309 22.2193 11.4823C21.9916 11.2263 21.6069 11.0889 21.1069 11.0855C20.2221 11.0794 19.3215 11.1075 18.4517 11.1346C17.9983 11.1487 17.5448 11.1627 17.0917 11.1728C16.7548 11.1799 16.4116 11.1781 16.0791 11.1761C15.9651 11.1754 15.8512 11.1749 15.7375 11.1745C15.7173 11.1086 15.6985 11.0497 15.681 10.9964C15.6401 10.8819 15.6087 10.7653 15.5869 10.6472C15.5493 10.4415 15.5384 10.233 15.5543 10.0254C15.7729 8.20693 16.0359 7.16433 18.8959 6.87249ZM19.5477 13.208L18.7477 15.607L17.9006 15.6188C17.2297 15.628 16.5734 15.637 15.9164 15.648C13.261 15.6928 12.9109 15.9736 12.7933 18.1538C12.7135 19.6318 12.704 21.1361 12.6947 22.5907C12.6909 23.2035 12.687 23.8164 12.6782 24.4289C12.6732 24.7766 12.6744 25.1243 12.6758 25.4879C12.6758 25.6258 12.6768 25.7658 12.6771 25.9089C11.4453 26.093 10.3338 26.0292 9.15947 25.9618C9.0286 25.9544 8.897 25.947 8.76471 25.9396C8.75419 25.884 8.74307 25.8299 8.73239 25.7767C8.69522 25.6174 8.67122 25.4561 8.66054 25.294C8.62577 24.2731 8.59345 23.2521 8.56358 22.2311C8.51216 20.5384 8.45908 18.7884 8.38873 17.0673C8.3298 15.6175 7.92875 15.3159 6.12648 15.3578C5.2833 15.3783 4.44883 15.418 3.56551 15.4596C3.22051 15.4761 2.87025 15.4928 2.51232 15.5087V12.4874C2.5947 12.478 2.67663 12.4679 2.75796 12.458C3.01867 12.4219 3.28145 12.3975 3.54522 12.3851C4.00477 12.3705 4.47333 12.3641 4.92642 12.358C5.58786 12.3488 6.27048 12.3394 6.94259 12.3049C8.63542 12.2181 8.95698 11.9347 8.9648 10.522C8.96735 10.1086 8.96405 9.69479 8.96089 9.28166C8.95593 8.61768 8.9508 7.93113 8.96974 7.25735C8.99301 6.82602 9.04785 6.39635 9.13392 5.97076L9.17719 5.72324C9.49589 3.87066 10.8595 2.72928 13.3464 2.23381L13.5125 2.19994C13.7935 2.13216 14.0826 2.09125 14.3744 2.07801C15.8235 2.06656 17.2522 2.06823 18.7651 2.0695C19.2414 2.07001 19.7226 2.07033 20.2084 2.07049C20.4832 2.99284 20.3351 3.94612 20.1397 4.772C19.9407 4.80203 19.7415 4.83169 19.5419 4.86105C19.0375 4.93538 18.5159 5.01229 18.004 5.10061C15.1952 5.58425 13.9176 6.77029 13.5941 9.19242C13.5767 9.32453 13.5582 9.45679 13.54 9.58915C13.4515 10.229 13.3596 10.8906 13.3446 11.5458C13.3184 12.6846 13.784 13.1047 15.1233 13.1515C15.8829 13.1781 16.6544 13.166 17.4003 13.1544C17.8128 13.1479 18.2393 13.1417 18.6582 13.1417C18.8716 13.1453 19.0846 13.1594 19.2959 13.184C19.3752 13.1913 19.4583 13.1995 19.5479 13.2076L19.5477 13.208Z" fill="#E0DBF5"/>
</g>
<defs>
<clipPath id="clip0_4_46">
<rect width="23" height="28" fill="white"/>
</clipPath>
</defs>
</svg>
