<svg width="100" height="100" viewBox="0 0 100 100" fill="none" xmlns="http://www.w3.org/2000/svg">
<path d="M99.7673 68.1107C99.4114 61.5663 99.0436 54.7984 98.5648 48.1491C98.0786 41.1466 96.6216 34.248 94.2371 27.656C92.4666 22.6303 89.7862 17.9826 86.3327 13.9507C79.1364 5.7246 69.7179 1.07724 58.3386 0.138039C50.7851 -0.485879 43.4988 1.11377 37.3671 2.75841C26.3351 5.72036 17.4406 11.9129 10.9314 21.1644C4.19584 30.737 0.604258 41.8372 0.255744 54.1491C0.227387 55.1395 0.192449 56.1311 0.157513 57.1223C0.0436711 60.3542 -0.0738659 63.6938 0.0588816 66.9798C0.179302 69.9538 0.561508 72.9569 0.931392 75.8615C1.05921 76.8639 1.1866 77.8663 1.30415 78.8687C1.52238 80.7305 2.75862 81.9143 4.78437 82.2021C5.51822 82.2916 6.25671 82.3365 6.99587 82.3361C7.52233 82.3465 8.06648 82.3573 8.59089 82.403C9.11995 82.4625 9.64469 82.5561 10.1621 82.6825C10.3125 82.7158 10.4644 82.7491 10.6179 82.782C10.6401 83.1484 10.6635 83.5028 10.6869 83.8464C10.7481 84.7614 10.8061 85.6258 10.8102 86.4747C10.8225 88.987 11.5204 91.5018 13.0069 94.3889C14.8892 98.0455 18.1088 99.9854 22.3173 100H22.3666C26.7802 100 30.0656 97.9548 31.8698 94.0836C33.4755 90.6375 34.1914 87.9309 34.1914 85.3072C34.2388 80.0317 34.017 74.7571 33.5269 69.5046C32.8903 63.4002 28.4738 59.472 22.2614 59.472H22.1587C18.7134 59.4961 15.7999 60.6583 13.7335 62.8336C11.6498 65.0278 10.608 68.0558 10.7214 71.5914C10.7313 71.8921 10.7502 72.1945 10.7687 72.499C10.8509 73.7884 10.9253 75.0121 10.3326 76.2271C10.0782 76.2088 9.82507 76.1996 9.57807 76.1909C8.48527 76.1493 7.45041 76.1148 6.51954 75.3107C6.29761 67.7855 6.63461 60.16 6.99915 52.9907C7.30377 46.9188 8.55292 40.9329 10.7005 35.2545C14.1116 26.2477 19.334 19.516 26.6692 14.6752C36.6454 8.09203 47.7936 6.79599 57.3839 6.39793C73.7471 8.1553 83.9457 16.3146 88.5623 31.3422C90.3788 37.4427 91.4626 43.7422 91.7901 50.1049L91.8772 51.5083C92.1099 55.2343 92.3503 59.0872 92.4863 62.8769C92.5073 63.4542 92.543 64.0328 92.5796 64.6147C92.7502 66.3521 92.7272 68.1032 92.5102 69.8352L88.5939 70.8173C88.5586 70.7433 88.5245 70.6734 88.4916 70.6056C88.3736 70.3976 88.2861 70.1734 88.2318 69.9397C87.7148 66.2136 85.6426 63.3552 81.516 60.6711C79.6016 59.5119 77.388 58.9591 75.1605 59.0847C72.933 59.2099 70.7934 60.0073 69.0176 61.3745C66.6626 63.275 65.2131 66.1471 64.8255 69.6797C64.6011 72.1109 64.5522 74.5554 64.6792 76.9937C64.7067 77.749 64.731 78.5052 64.752 79.2622C64.7939 82.6409 65.0183 86.0151 65.4247 89.3693C66.2508 95.2694 70.1954 99.0121 76.2472 99.6381C80.1831 100.043 83.3452 98.5879 85.3919 95.4238C88.0518 91.3105 88.9469 87.5013 88.1283 83.7798C87.6877 81.8394 87.8056 79.8121 88.4686 77.9374C89.1228 77.9416 89.7652 77.9574 90.4002 77.9732C91.9722 78.0456 93.5467 78.0177 95.115 77.89C98.6371 77.5269 100.184 75.6572 99.9827 72.0056L99.7673 68.1107ZM27.5425 78.7527C27.5261 79.1362 27.5109 79.513 27.5109 79.8782C27.5109 79.9161 27.5158 79.9539 27.5253 79.9905C28.3556 82.96 28.0249 86.139 26.6018 88.8685L26.4785 89.118C26.2371 89.6542 25.9458 90.1654 25.6085 90.645C25.1182 91.3038 24.4719 91.8275 23.7291 92.1669C22.9863 92.5063 22.1711 92.6511 21.3585 92.5874C20.5674 92.5225 19.8058 92.2543 19.1462 91.8075C18.4866 91.3608 17.9508 90.751 17.5898 90.0356C17.0796 89.1002 16.7689 88.0669 16.6778 87.0021C16.4004 82.1177 16.1986 77.1151 16.0782 72.1342C16.0079 69.2355 17.4718 67.3683 20.1995 66.8779C20.6531 66.7934 21.1131 66.7498 21.5743 66.7468C23.75 66.7468 25.2242 67.8662 26.0597 70.1405C26.723 72.1184 27.1981 74.1557 27.4784 76.225C27.5841 77.0631 27.6056 77.9104 27.5425 78.7527ZM80.888 74.7476C80.8991 75.2371 80.8958 75.7317 80.8929 76.2279C80.8156 77.7557 80.941 79.2872 81.2661 80.7813C82.0572 83.7345 80.9003 86.2239 79.7812 88.6297C78.9502 90.4183 77.8463 91.1953 76.3002 91.0734C73.9987 90.8937 72.6219 90.0206 71.9717 88.3261C71.4354 87.0629 71.0926 85.7248 70.9545 84.3576C70.6307 78.5318 70.4696 73.8071 70.4478 69.4888C70.4424 68.4194 71.079 67.3333 72.1945 66.5085C73.164 65.7885 74.3307 65.3921 75.5329 65.3746C75.9808 65.3717 76.4263 65.4395 76.8529 65.5764C77.8155 65.9424 78.7336 66.4183 79.5889 66.9952C79.9998 67.2472 80.4227 67.5064 80.8761 67.7647C80.8761 68.5213 80.8719 69.2438 80.8687 69.9417C80.8596 71.6122 80.8522 73.1915 80.8871 74.7471L80.888 74.7476Z" fill="#E0DBF5"/>
</svg>
