<svg width="96" height="99" viewBox="0 0 96 99" fill="none" xmlns="http://www.w3.org/2000/svg">
<path d="M45.071 94.844L45.5613 95.0111C47.364 95.6215 49.0666 96.1972 50.1889 98.7203C50.2173 98.784 50.2571 98.8404 50.3061 98.8858C50.3551 98.9308 50.4119 98.9639 50.4727 98.9827C50.5112 98.9941 50.5506 99 50.5904 99C50.6774 99 50.7623 98.9713 50.8353 98.918C51.6628 98.3091 52.4421 97.7575 53.1821 97.2336C54.7326 96.1354 56.0717 95.188 57.3523 94.0839C61.9454 90.2101 66.1366 85.7635 69.8466 80.8272C74.7227 74.2287 79.7645 67.4054 84.5107 60.2628C87.4812 55.7915 90.0139 50.7998 92.1543 46.4738C94.2952 42.0965 95.5696 37.2466 95.8902 32.2584C96.471 24.0611 94.7456 16.6724 90.7627 10.2978C86.3296 3.20314 80.4337 -0.252085 73.2519 0.0143047C65.1499 0.320232 58.0245 3.81981 52.073 10.4163C51.7844 10.7513 51.5171 11.109 51.2735 11.4868C50.8108 12.1688 50.3717 12.8163 49.7109 13.0728C42.7688 5.43198 37.461 2.44307 29.5209 1.67702C21.3721 0.890206 14.7751 3.85153 9.91214 10.4742C7.49878 13.7477 5.38352 17.2878 3.59847 21.0408C-0.206513 29.0913 -0.999383 37.6543 1.24555 46.4936C3.24766 54.383 6.58602 61.7579 11.0755 68.209C20.0513 81.1479 31.4893 90.1103 45.071 94.844ZM11.4581 22.5654C12.5009 20.3451 13.6625 18.1987 14.9365 16.138C17.9651 11.1429 22.2337 8.62179 27.6468 8.62179C28.3174 8.62179 29.0055 8.66044 29.7112 8.73788C36.9415 9.53211 42.7417 13.1316 46.9503 19.436C47.4559 20.1931 48.0065 20.894 48.492 21.5118C48.6896 21.7639 48.8755 22.0007 49.0395 22.2177C49.1078 22.3081 49.2022 22.3683 49.3059 22.3881C51.2578 22.7686 52.0468 21.6249 52.6324 20.5267C56.0123 14.1922 61.2728 10.411 69.1884 8.62782C71.0629 8.26224 72.975 8.20802 74.8635 8.4671C77.862 8.78686 80.4341 10.4521 82.5093 13.415C84.8741 16.8136 86.2758 20.9398 86.5304 25.2535C86.9489 30.2397 86.1385 35.2597 84.1892 39.7578C82.7202 43.244 81.0481 46.6164 79.1842 49.8524C75.7229 55.6146 72.0264 61.3432 68.4524 66.883L67.2103 68.8105C64.5485 72.9403 61.7958 77.1032 59.1345 81.1287C58.1741 82.5812 57.2146 84.0342 56.2554 85.4883C55.8417 86.1159 55.4109 86.7308 54.9552 87.3821C54.8047 87.5966 54.6521 87.8151 54.4968 88.038C53.2202 87.4449 51.9772 86.8652 50.7583 86.2988C47.8814 84.9614 45.1383 83.6858 42.4018 82.3914C34.8273 78.8666 27.9663 73.6376 22.2359 67.0229C16.3604 60.1916 12.2883 52.8835 9.7875 44.6803C7.50713 37.1976 8.05334 29.9635 11.4581 22.5654Z" fill="#E0DBF5"/>
</svg>
