<svg width="33" height="28" viewBox="0 0 33 28" fill="none" xmlns="http://www.w3.org/2000/svg">
<path d="M31.3852 4.59857C30.9179 1.2189 27.689 -0.137725 24.6974 0.0183569C22.922 0.110109 21.1637 0.158959 19.0699 0.204199C17.1729 0.245157 15.2275 0.280333 13.5113 0.311341C11.0485 0.356003 8.50188 0.402269 5.97314 0.463822C3.07001 0.534632 0.729125 2.18176 0.278943 4.46943C0.098187 5.38764 0.0929254 6.31418 0.104091 7.34312C0.136801 10.3479 0.186719 13.3841 0.235455 16.3204L0.240714 16.6384C0.259981 17.8196 0.278882 19.0009 0.297448 20.1822C0.300601 20.3812 0.308482 20.5807 0.316627 20.7802L0.3173 20.7962C0.350331 21.2904 0.344762 21.7861 0.300623 22.2797C0.144432 23.5979 0.717306 25.0033 1.83324 26.0391C3.0737 27.1905 4.83171 27.7758 6.78482 27.6881C8.91606 27.5909 11.09 27.6094 13.1923 27.6272L13.3446 27.6286C15.8394 27.6496 18.3766 27.7054 20.8334 27.7598L22.0722 27.7871C22.2808 27.7981 22.4878 27.8257 22.6907 27.8697C22.7971 27.8896 22.9035 27.9093 23.0095 27.9254C23.0247 27.9277 23.0402 27.929 23.0556 27.929H24.3998C24.4131 27.9289 24.4262 27.9281 24.4392 27.9264C24.7079 27.8917 24.9778 27.8603 25.2469 27.8292L25.2671 27.8269C25.8703 27.7575 26.494 27.686 27.102 27.5697C29.7245 27.0679 31.9464 24.6722 31.9537 22.3384C31.9556 21.7885 31.9578 21.2385 31.9603 20.6884L31.9615 20.4123C31.9746 17.3975 31.9891 14.2801 31.9155 11.2105C31.8618 8.97826 31.6834 6.75319 31.3852 4.59857ZM29.9271 22.1758C29.9351 23.9783 28.15 25.666 25.8631 26.0178C24.1108 26.2874 22.3197 26.1958 20.5873 26.1075C19.9442 26.0746 19.2793 26.0406 18.6185 26.0252C17.8684 26.0079 17.1044 25.9737 16.3614 25.9405L16.2958 25.9375C15.976 25.9233 15.656 25.909 15.3386 25.8963H15.3239C14.5155 25.8963 13.7071 25.8955 12.8986 25.8937C11.9603 25.8923 11.007 25.8909 10.0497 25.8909C8.79061 25.8909 7.75548 25.8932 6.79127 25.8983H6.74884C5.33458 25.8983 4.16796 25.5289 3.37505 24.8295C2.55062 24.1025 2.1204 23.0165 2.1313 21.6887C2.15679 18.5667 2.14141 15.4059 2.12643 12.3491C2.11802 10.6039 2.10937 8.79927 2.10832 7.01618C2.08857 5.98926 2.35227 4.97347 2.87676 4.05616C3.47158 3.04862 4.53407 2.51396 6.22025 2.37362C8.58636 2.17692 10.4956 2.06977 12.2287 2.03656C17.232 1.94007 21.0825 1.90593 24.7133 1.92572C27.3617 1.94018 28.8913 3.0375 29.3898 5.28109C29.9415 7.76754 29.9336 10.3232 29.9254 12.796L29.9246 13.0057C29.9134 16.5126 29.9141 19.4262 29.9268 22.1758H29.9271Z" fill="#E0DBF5"/>
<path d="M16.7061 7.38161C15.0462 7.3543 13.569 7.65144 12.3136 8.26096C10.8016 8.99451 9.19108 9.98492 8.7091 11.7659C8.08933 14.0555 8.37124 16.2585 9.54694 18.3136C10.3887 19.7854 11.7083 20.691 13.3629 20.9323C14.353 21.0846 15.3556 21.1645 16.3606 21.1715C16.6759 21.1715 16.9887 21.1618 17.289 21.1427C19.5168 21.0012 21.2864 20.2145 22.5486 18.8043C24.5032 16.6207 24.843 14.1206 23.5591 11.3735C22.3176 8.71681 19.9426 7.3359 16.7061 7.38161ZM22.1393 14.4015C22.1489 17.3866 19.8764 19.3802 16.3496 19.4792C15.4524 19.4926 14.5561 19.4237 13.675 19.2736C12.5474 19.0953 11.6914 18.4976 11.1304 17.4971C10.1947 15.8276 9.9677 14.1021 10.4554 12.3683C10.8313 11.0324 11.9388 10.0526 13.8411 9.37284C14.548 9.12248 15.3034 8.99534 16.0653 8.99845C16.7253 9.00119 17.3816 9.08631 18.0145 9.25127C20.5121 9.89145 22.1312 11.913 22.1393 14.4015Z" fill="#E0DBF5"/>
<path d="M25.2559 4.4751H25.2182C24.8489 4.48324 24.4973 4.61585 24.2357 4.84559C23.9743 5.07533 23.8227 5.38472 23.8126 5.70991C23.8034 5.86841 23.8308 6.02688 23.8932 6.17577C23.9556 6.32468 24.0515 6.46091 24.1753 6.57627C24.3044 6.69207 24.459 6.78359 24.6295 6.84524C24.8002 6.9069 24.983 6.93741 25.1675 6.93496C25.5311 6.92461 25.8763 6.79152 26.1315 6.56321C26.3869 6.33492 26.5327 6.0289 26.539 5.7085C26.5509 5.06913 25.9512 4.49292 25.2559 4.4751Z" fill="#E0DBF5"/>
</svg>
