<svg width="100" height="100" viewBox="0 0 100 100" fill="none" xmlns="http://www.w3.org/2000/svg">
<g clip-path="url(#clip0_16_5)">
<path d="M20.8395 21.9895C20.8147 22.0352 20.7987 22.0841 20.7922 22.1343C20.7752 22.2687 20.7526 22.4148 20.7285 22.5691C20.6546 22.9816 20.609 23.3975 20.5918 23.8146C20.4333 31.2198 20.2778 38.6257 20.1254 46.0319C19.976 53.198 19.8253 60.3641 19.6732 67.5301C19.6546 68.4245 19.5958 69.318 19.5395 70.1823C19.5204 70.4741 19.5013 70.7623 19.4842 71.0441C11.042 73.9236 4.60281 79.368 1.33045 86.4019C0.430949 88.3358 -0.323823 90.4423 0.238991 92.7423C0.538883 93.9875 1.14225 95.1632 2.00876 96.1906C2.87529 97.2184 3.98505 98.0745 5.2641 98.7019C6.97144 99.5475 8.90586 99.9897 10.8731 99.9836C12.1226 99.9828 13.3641 99.8106 14.5516 99.4741C18.3943 98.3871 21.3576 96.1806 23.6113 92.7249C25.9171 89.1323 27.1406 85.0954 27.1692 80.9858C27.2496 77.0762 27.3408 73.1662 27.443 69.2558C27.6375 61.4045 27.8385 53.2858 27.8953 45.2988C27.9214 41.7308 27.7008 38.1091 27.4883 34.6065C27.3631 32.5556 27.237 30.4351 27.1566 28.3516C27.1329 27.9439 27.0844 27.5376 27.0113 27.1343C26.8515 26.14 26.7003 25.1982 27.2837 24.2274C47.1902 19.3721 67.589 13.3942 89.6131 5.96076C89.6604 7.28467 89.6016 8.52215 89.5448 9.72432C89.5131 10.3982 89.482 11.0615 89.4694 11.7241C89.4262 14.0268 89.3795 16.3291 89.3282 18.6308C89.1835 25.4317 89.0342 32.4635 89.0428 39.3813C89.0478 43.3217 89.2357 47.3236 89.4172 51.1941C89.5177 53.3193 89.6182 55.5167 89.6915 57.6775C89.7016 58.461 89.6639 59.2449 89.579 60.0254C89.5523 60.3297 89.5257 60.6341 89.5041 60.9384C89.0795 61.1701 88.6634 61.3975 88.2559 61.621C87.2151 62.1884 86.2322 62.7254 85.2564 63.2862C80.3322 66.168 76.2121 69.9636 73.1961 74.3962C70.0157 78.958 69.8493 83.5297 72.7021 87.9845C75.8031 92.8284 81.5971 94.5532 87.4604 92.3758C90.2403 91.3319 92.6473 89.6645 94.4332 87.5462C96.8453 84.7471 98.3076 81.4049 99.0302 77.0275C99.985 71.2523 99.8091 65.4128 99.5126 60.4619C99.3629 57.9523 99.2071 55.4423 99.0458 52.9323C98.686 47.2249 98.3141 41.3233 98.0448 35.5177C97.7378 28.8998 97.5091 22.17 97.288 15.6578C97.185 12.6169 97.079 9.57602 96.9704 6.53545L96.9493 5.90067C96.9242 5.07458 96.8991 4.22474 96.795 3.38474C96.6126 1.89561 95.6855 0.826836 94.2508 0.453358C94.1629 0.430145 94.0694 0.427832 93.98 0.446775C93.0493 0.643297 92.1915 0.819945 91.384 0.985162C89.7363 1.32342 88.3136 1.61512 86.8905 1.95599C82.7443 2.94947 78.5368 3.98125 74.4679 4.9795L69.5363 6.18728C55.2342 9.68119 41.0229 13.6103 27.2968 17.8646C24.9329 18.5981 22.2551 19.4287 20.8395 21.9895ZM19.7817 76.4862C19.9834 76.8858 20.1188 77.3084 20.1837 77.741C20.4762 81.818 19.2778 85.8715 16.7586 89.3262C15.85 90.6632 14.4729 91.7145 12.827 92.3288C11.3888 92.8554 10.2531 92.6971 9.26214 91.8271C8.6335 90.3145 9.26209 88.9575 10.0279 87.5884C11.645 84.6841 16.2204 79.4393 19.745 76.4006C19.7571 76.4297 19.7691 76.458 19.7817 76.4862ZM84.7418 84.2041C83.8543 84.8436 82.9749 85.0984 82.2001 84.9436C81.3825 84.778 80.6815 84.1675 80.1739 83.178C79.478 81.9228 79.3845 80.4797 79.9146 79.1649L80.0106 78.9193C80.1749 78.4558 80.383 78.0049 80.6332 77.571C82.7996 74.0901 85.9026 71.2049 89.4955 67.8641L89.5503 67.8123C90.0373 73.2601 89.389 77.4528 87.481 81.2993C86.8292 82.4319 85.8935 83.4245 84.7418 84.2041Z" fill="#E0DBF5"/>
</g>
<defs>
<clipPath id="clip0_16_5">
<rect width="100" height="100" fill="white"/>
</clipPath>
</defs>
</svg>
