<svg width="22" height="27" viewBox="0 0 22 27" fill="none" xmlns="http://www.w3.org/2000/svg">
<g clip-path="url(#clip0_210_5)">
<path d="M3.4798 2.17352C3.464 1.75912 3.39339 1.34746 3.26927 0.946047C3.20767 0.707801 3.04872 0.494929 2.81976 0.344031C2.59082 0.193132 2.30613 0.113624 2.01467 0.119168C1.40916 0.138912 0.985313 0.450077 0.820414 0.994971C0.693005 1.45337 0.619195 1.92105 0.600014 2.39139C0.566106 2.94489 0.530718 3.49856 0.493849 4.05239C0.381629 5.77213 0.26558 7.55058 0.224002 9.30221C0.137818 12.9381 0.123082 16.6027 0.121063 20.0214C0.136101 21.9958 0.437481 23.9614 1.01862 25.8752C1.11093 26.102 1.26145 26.3094 1.45962 26.4827C1.56054 26.5878 1.66671 26.6967 1.77368 26.8248C1.79279 26.8477 1.81823 26.8663 1.84786 26.8793C1.87748 26.8923 1.91042 26.899 1.94383 26.899H1.94848C1.98267 26.8983 2.01613 26.8906 2.04588 26.8764C2.07563 26.8624 2.10076 26.8423 2.11903 26.8182C2.22741 26.6747 2.31178 26.5745 2.37475 26.4997C2.47034 26.4105 2.53552 26.3015 2.56347 26.184C2.7653 24.401 2.93402 22.8259 3.08055 21.3675C3.49714 17.2239 3.52703 13.0052 3.55589 8.9252C3.56249 8.0018 3.57048 7.07835 3.57989 6.15485C3.59402 4.94745 3.54338 3.72131 3.49474 2.5355L3.4798 2.17352Z" fill="#6F688F"/>
<path d="M21.1196 0.984454C20.9846 0.691167 20.3614 0.569336 20.0575 0.569336C19.7424 0.569336 19.3608 0.874593 19.2813 1.11472C19.1358 1.57045 19.0536 2.03867 19.0362 2.51012L18.948 4.3495C18.7975 7.48217 18.6416 10.7217 18.5361 13.9094C18.4576 16.2801 18.3764 18.7314 18.8291 21.1853C19.0984 22.6449 19.4712 24.0855 19.8337 25.4245L19.845 25.4664C19.936 25.8098 20.0886 26.3844 21.1618 26.392H21.1636C21.2185 26.392 21.2712 26.3737 21.3102 26.3412C21.3491 26.3088 21.3709 26.2646 21.3711 26.2187C21.3711 25.8428 21.3675 25.4731 21.3641 25.1079C21.3562 24.2897 21.3487 23.5166 21.3802 22.7345C21.4073 22.0645 21.4593 21.3828 21.51 20.7235C21.5679 19.9695 21.6277 19.1899 21.6513 18.4207C21.7294 15.7629 21.822 12.2613 21.8452 8.74138C21.8569 6.9496 21.8023 5.02618 21.6781 2.86078C21.6095 2.21491 21.421 1.58188 21.1196 0.984454Z" fill="#6F688F"/>
</g>
<defs>
<clipPath id="clip0_210_5">
<rect width="22" height="27" fill="white"/>
</clipPath>
</defs>
</svg>
