<svg width="22" height="27" viewBox="0 0 22 27" fill="none" xmlns="http://www.w3.org/2000/svg">
<g clip-path="url(#clip0_210_3)">
<path d="M21.0062 10.5762C20.8973 10.4739 20.7827 10.3784 20.6631 10.29C20.309 10.0273 19.953 9.75174 19.6087 9.48576C18.833 8.86366 18.0275 8.28303 17.1953 7.74613C13.5908 5.50901 9.52094 3.45773 4.75299 1.47538C4.01874 1.17005 3.27363 0.877783 2.48424 0.568432C2.10296 0.418927 1.70902 0.264257 1.29666 0.100678C1.26497 0.0881106 1.23001 0.0878587 1.19816 0.0999588C1.16631 0.112059 1.13967 0.135703 1.12312 0.166596C1.08187 0.243288 1.03238 0.32098 0.984528 0.396379C0.859811 0.564499 0.769944 0.757882 0.720656 0.964238C0.581044 1.74199 0.489707 2.52837 0.447184 3.31842C0.426009 3.85019 0.404513 4.3819 0.382696 4.91357C0.268571 7.71856 0.150459 10.6189 0.107697 13.4731C0.0664466 16.2059 0.0768964 18.9845 0.0869339 21.6716C0.0910589 22.7675 0.0940727 23.8635 0.0959977 24.9594V24.9979C0.0880052 25.2881 0.104567 25.5787 0.145496 25.8659C0.170439 26.0579 0.2374 26.2415 0.341171 26.4022C0.444944 26.5627 0.582746 26.6964 0.743903 26.7925C0.903787 26.881 1.08218 26.9265 1.2631 26.9254C1.45691 26.9232 1.6482 26.8793 1.82492 26.7961C2.00661 26.7061 2.17972 26.5983 2.34192 26.4743C2.4141 26.4226 2.48631 26.3709 2.55987 26.3226C3.00317 26.0313 3.44601 25.7392 3.88839 25.4465C4.85832 24.8063 5.86111 24.1444 6.85386 23.505C8.26506 22.5959 9.67783 21.6897 11.0922 20.7862C12.8531 19.6589 14.6741 18.4932 16.4604 17.3384C18.1346 16.2559 19.6367 14.9039 21.0316 13.612C21.6015 13.0842 21.8679 12.6113 21.8703 12.1233C21.8723 11.6252 21.5977 11.1339 21.0062 10.5762ZM2.17831 2.32271L2.21337 2.33708C2.33841 2.38147 2.45753 2.44232 2.56784 2.51818C4.00939 3.63409 5.54183 4.54934 7.39918 5.58023C10.1354 7.09926 12.4236 8.38566 14.6974 9.72704C15.504 10.2028 16.2862 10.7631 17.0427 11.305C17.3177 11.5023 17.5941 11.6998 17.8714 11.8938C18.0544 12.0281 18.2302 12.1729 18.3978 12.3277C18.4716 12.3929 18.5504 12.4624 18.6366 12.5371C18.0216 13.2622 17.3273 13.9096 16.5681 14.466C15.3168 15.3765 14.0885 16.2612 12.8222 17.0691C10.1085 18.801 7.33399 20.5363 4.65082 22.2146L2.56315 23.5215C2.46424 23.5768 2.35961 23.6202 2.25132 23.6508L2.23757 23.6549C2.02431 21.3881 1.97756 5.42455 2.17831 2.32271Z" fill="#6F688F"/>
</g>
<defs>
<clipPath id="clip0_210_3">
<rect width="22" height="27" fill="white"/>
</clipPath>
</defs>
</svg>
