<svg width="25" height="25" viewBox="0 0 25 25" fill="none" xmlns="http://www.w3.org/2000/svg">
<g clip-path="url(#clip0_108_108)">
<path d="M0.9465 10.0435C0.708852 10.1435 0.479748 10.2698 0.26224 10.4207C0.193894 10.4607 0.134681 10.5195 0.0895836 10.5921C0.0444865 10.6646 0.0148222 10.7489 0.0030826 10.8379C-0.00782275 11.0005 0.0648121 11.1632 0.21831 11.3214C0.345984 11.4444 0.483575 11.5524 0.629111 11.6437C0.740736 11.7189 0.85442 11.7901 0.968104 11.8611C1.13086 11.9628 1.29917 12.0674 1.45596 12.1835C3.5822 13.7531 5.51707 15.1447 7.63909 16.2691C7.63456 16.3587 7.62952 16.448 7.62438 16.5369C7.60997 16.7884 7.59516 17.0482 7.59485 17.3048C7.59437 17.6922 7.59307 18.0798 7.59094 18.4676C7.58549 19.6975 7.57983 20.9692 7.61491 22.2198C7.62757 22.6707 7.76481 22.9931 8.00133 23.1276C8.25 23.2685 8.56964 23.1865 8.90143 22.8953C9.02108 22.7903 9.14372 22.6724 9.27623 22.5346C9.85751 21.93 10.438 21.3243 11.024 20.7128L11.555 20.1585C11.5591 20.1621 11.563 20.1656 11.5666 20.1693L12.0576 20.6675C12.6167 21.2344 13.1947 21.8204 13.7589 22.403C13.9196 22.5685 14.0812 22.7332 14.2437 22.8969C14.7392 23.3987 15.252 23.9176 15.7125 24.4737C15.9565 24.768 16.1937 24.9064 16.4788 24.9064C16.6018 24.9043 16.7239 24.8829 16.8421 24.8429C17.258 24.7094 17.5264 24.4096 17.7124 23.872C18.4131 21.8464 19.1301 19.7889 19.8236 17.7993C20.3928 16.165 20.9616 14.5305 21.5299 12.8958C22.7543 9.38654 23.8106 5.79893 24.6937 2.14989C24.8007 1.72662 24.8759 1.29307 24.9185 0.854253C24.9328 0.75258 24.9275 0.64843 24.9031 0.549492C24.8786 0.450553 24.8356 0.35936 24.7773 0.282656C24.707 0.207819 24.6234 0.152486 24.5325 0.120735C24.4418 0.0889831 24.3461 0.0816223 24.2526 0.099165C24.1287 0.1167 24.0066 0.14921 23.8884 0.196229L23.8724 0.201947C23.6068 0.295394 23.3404 0.386151 23.0741 0.477049C22.4553 0.688093 21.8153 0.906316 21.1945 1.1551C16.7098 2.95316 12.1615 4.91068 7.67592 6.9733C6.3822 7.56796 5.06491 8.16773 3.79094 8.74746C2.84225 9.17853 1.8941 9.61052 0.9465 10.0435ZM9.48353 15.5866C9.73045 15.3433 9.9645 15.1133 10.2047 14.8971C11.1465 14.0488 12.0892 13.2019 13.0327 12.3565C14.8866 10.6931 16.8038 8.97306 18.6789 7.26505C19.2523 6.7432 19.7965 6.15655 20.3227 5.59029C20.5035 5.39611 20.6841 5.20109 20.8661 5.00874C21.0113 4.85534 21.2542 4.59866 21.1196 4.09721C21.1151 4.08082 21.1079 4.06569 21.0984 4.05276C21.0888 4.03983 21.0771 4.0294 21.0639 4.0221C21.0507 4.01485 21.0364 4.01083 21.0218 4.01034C21.0073 4.00983 20.9928 4.01284 20.9793 4.01916C20.9231 4.04598 20.8687 4.06966 20.8164 4.09199C20.7073 4.13596 20.6011 4.18912 20.4986 4.2511C17.0187 6.48011 13.9917 9.40302 11.0644 12.2299C10.4024 12.8691 9.77839 13.5284 9.11841 14.2258C8.83816 14.522 8.55508 14.8195 8.26913 15.1182L1.74002 10.9459C1.77765 10.9185 1.81716 10.8949 1.85812 10.8753C2.90819 10.4088 3.95785 9.9407 5.00709 9.47087C7.57633 8.32281 10.2334 7.13556 12.8576 6.00619C15.1947 5.00036 17.5862 4.02596 19.899 3.0836C20.668 2.77034 21.4369 2.45645 22.2056 2.14198C22.5034 2.01989 22.804 1.92438 23.1223 1.82341C23.2067 1.79671 23.2914 1.76966 23.3764 1.74223C22.0951 6.53289 20.4604 11.2318 18.8787 15.7786C18.0475 18.1676 17.1888 20.6363 16.3858 23.1036C14.2032 21.0306 12.0861 18.8392 10.0381 16.719C9.76146 16.4323 9.48425 16.1456 9.20648 15.8587C9.30092 15.7658 9.393 15.6753 9.48323 15.5866H9.48353ZM10.6966 19.2409L8.82417 21.1125L8.67572 17.0389L10.6966 19.2409Z" fill="#E0DBF5"/>
</g>
<defs>
<clipPath id="clip0_108_108">
<rect width="25" height="25" fill="white"/>
</clipPath>
</defs>
</svg>
