<svg width="27" height="28" viewBox="0 0 27 28" fill="none" xmlns="http://www.w3.org/2000/svg">
<g clip-path="url(#clip0_16_12)">
<path d="M4.34126 11.6883C4.37901 11.6999 4.41843 11.7043 4.45766 11.7012C4.48136 11.7029 4.50546 11.7047 4.52956 11.7047C4.56682 11.7055 4.60392 11.6993 4.63905 11.6863C4.74307 11.6437 4.84104 11.5863 4.93025 11.5158C6.70455 10.147 8.78795 9.3106 11.1224 9.03039C11.9322 8.92113 12.7469 8.85717 13.5632 8.83873C16.6405 8.81629 19.1932 9.04218 21.6332 10.2306C21.7327 10.2819 21.8379 10.3203 21.9463 10.3447C22.1555 10.3925 22.3742 10.3582 22.5609 10.2483C22.7476 10.1384 22.8895 9.96052 22.9596 9.74834C23.0951 9.33107 22.9528 8.96443 22.5596 8.71589C22.4271 8.6401 22.2856 8.58304 22.1389 8.54615C22.0809 8.52874 22.0229 8.51144 21.9665 8.49141C18.3281 7.20099 14.5065 6.93461 10.2833 7.67729C8.40467 7.99044 6.62081 8.7557 5.07155 9.91307C4.71645 10.2022 4.40181 10.5421 4.13686 10.923C4.09067 10.9804 4.05776 11.0481 4.04072 11.121C4.02369 11.1939 4.02298 11.2699 4.03866 11.3431C4.06043 11.4211 4.09906 11.4928 4.15153 11.5527C4.20401 11.6126 4.26893 11.659 4.34126 11.6883Z" fill="#E0DBF5"/>
<path d="M20.76 14.2783C20.6926 14.2527 20.6264 14.2281 20.5584 14.2079C17.1267 13.1991 13.735 12.9699 10.477 13.5263C9.27885 13.731 8.10065 14.0839 7.09045 14.3984C6.63155 14.5413 6.21654 14.8335 5.81514 15.116L5.72644 15.1789C5.63623 15.2572 5.56339 15.3551 5.513 15.4658C5.46262 15.5767 5.43591 15.6977 5.43475 15.8204C5.43785 15.975 5.53264 16.1111 5.62474 16.2426C5.66054 16.2941 5.69754 16.3475 5.72654 16.3982C5.73567 16.4143 5.74861 16.4275 5.76409 16.4367C5.77956 16.446 5.79705 16.4508 5.81484 16.4507C5.82857 16.4508 5.84216 16.4479 5.85484 16.4424C6.09844 16.3353 6.32295 16.2294 6.53995 16.1268C6.93905 15.9257 7.35089 15.7536 7.77254 15.6117C10.5516 14.7494 13.4728 14.511 16.3457 14.9119C17.2258 15.0518 18.0984 15.2396 18.9599 15.4749C19.4099 15.589 19.8744 15.7069 20.3345 15.8091C20.9345 15.9421 21.3662 15.7584 21.4884 15.3174C21.5754 15.0025 21.52 14.5669 20.76 14.2783Z" fill="#E0DBF5"/>
<path d="M18.8289 19.6256C18.5955 19.4609 18.3448 19.3251 18.0817 19.221C15.3351 18.177 12.8433 18.0025 10.4635 18.688C9.64486 18.9237 8.85766 19.2984 8.16346 19.6289C7.90526 19.7517 7.70346 20.0121 7.52606 20.2417L7.47416 20.3088C7.42784 20.3897 7.40468 20.4829 7.40745 20.5771C7.41021 20.6715 7.43879 20.763 7.48976 20.8408C7.61377 20.9772 7.78197 21.06 7.96126 21.0729C7.97438 21.0729 7.9875 21.0721 8.00056 21.0708C8.13847 21.0469 8.27115 20.9971 8.39226 20.9239C8.45657 20.8886 8.52275 20.857 8.59046 20.8296C8.76136 20.7649 8.93166 20.6972 9.10206 20.6297C9.53316 20.45 9.97261 20.2932 10.4188 20.1599C12.5248 19.5726 14.6861 19.6887 17.0268 20.5141C17.3094 20.6139 17.5924 20.6991 17.92 20.798C18.0815 20.8467 18.2526 20.8983 18.4377 20.9559C18.4521 20.9604 18.4673 20.9616 18.4821 20.9592C18.497 20.9569 18.5112 20.9511 18.5238 20.9424C18.5622 20.9157 18.6138 20.8872 18.6675 20.8571C18.8389 20.7794 18.9891 20.6583 19.1048 20.5046C19.2872 20.2122 19.179 19.867 18.8289 19.6256Z" fill="#E0DBF5"/>
<path d="M26.8975 12.8566C26.5887 10.0153 25.5011 7.32879 23.7664 5.12229C22.3364 3.28246 20.7987 1.97107 19.0645 1.11502C17.7113 0.431244 16.2289 0.0752028 14.7268 0.0732422C14.2654 0.0739668 13.8044 0.105507 13.3468 0.16764C11.4424 0.426561 9.51203 1.00606 7.27393 1.99235C4.24643 3.32733 2.13913 5.62134 1.01043 8.80883C0.219023 10.9979 -0.0860079 13.3475 0.118524 15.6788C0.356424 18.2979 0.957423 20.3281 2.00943 22.0653C3.52943 24.5732 5.44393 26.2251 7.86363 27.1132C9.33053 27.6523 10.9451 27.9231 12.9436 27.9656C14.1196 27.9656 15.2144 27.8166 16.2736 27.672L16.4743 27.6448C18.7858 27.3314 20.7488 26.4565 22.4762 24.9725C24.145 23.537 25.3402 21.7715 26.028 19.726C26.8547 17.2656 27.1388 15.0178 26.8975 12.8566ZM24.1689 20.6694C22.8609 23.4469 20.6611 25.269 17.628 26.0849C17.2638 26.1831 16.8872 26.254 16.4892 26.3285C16.2919 26.3651 16.0855 26.4041 15.8692 26.4479C14.9255 26.5969 13.6525 26.6194 12.9512 26.6194C12.6388 26.6194 12.4392 26.6146 12.4336 26.6146C10.5912 26.591 9.00593 26.2634 7.58863 25.612C5.69993 24.7441 4.19023 23.279 2.97473 21.1341C2.24063 19.8405 1.77473 18.3092 1.51003 16.3155C1.16993 13.7798 1.46728 11.1949 2.37263 8.81661C3.32533 6.28256 5.03923 4.35964 7.46573 3.10299C8.02573 2.81209 10.3037 2.11212 10.9024 1.98439C11.7453 1.80804 12.5998 1.70012 13.4585 1.66159C16.8558 1.57644 18.1976 2.14999 20.2723 3.81142C22.4451 5.55078 23.9763 7.73709 24.8242 10.3089C25.9763 13.8117 25.7565 17.2975 24.1689 20.6687V20.6694Z" fill="#E0DBF5"/>
</g>
<defs>
<clipPath id="clip0_16_12">
<rect width="27" height="28" fill="white"/>
</clipPath>
</defs>
</svg>
