<svg width="30" height="31" viewBox="0 0 30 31" fill="none" xmlns="http://www.w3.org/2000/svg">
<path d="M14.8668 22.9391C11.6469 25.3319 8.49816 27.6685 5.35548 30.0131C5.12474 30.1854 4.949 30.4315 4.7266 30.6175C4.21202 31.0475 3.72488 30.8767 3.60619 30.2085C3.5605 29.9424 3.57241 29.6693 3.6411 29.4082C3.96657 28.2117 4.27714 27.0081 4.67365 25.8351C5.42478 23.6137 6.23062 21.4116 7.0146 19.2018C7.09627 18.9716 7.18558 18.7443 7.25571 18.5571C5.0374 16.5123 2.93695 14.4247 0.88676 12.2854C0.611012 11.9923 0.377433 11.6612 0.192903 11.3018C-0.0420399 10.8505 0.119787 10.5469 0.611679 10.4796C1.0975 10.4107 1.58739 10.3757 2.07793 10.3748C3.95095 10.3814 5.82379 10.419 7.6968 10.425C8.43074 10.4274 9.1648 10.3773 9.93777 10.3497C10.2922 9.44545 10.6398 8.56912 10.9798 7.68982C11.8745 5.37622 12.7676 3.06185 13.6591 0.746719C13.6899 0.661896 13.726 0.57911 13.7671 0.498855C14.0256 0.0170427 14.5123 -0.0292883 14.8383 0.41697C14.9753 0.622941 15.0869 0.845189 15.1705 1.07872C15.8803 2.83557 16.5566 4.60691 17.2994 6.34898C17.7318 7.36263 18.2686 8.33074 18.7702 9.34423C18.9837 9.3437 19.1586 9.34681 19.3342 9.34285C21.5181 9.28679 23.702 9.21756 25.8862 9.17809C26.9318 9.15922 27.9784 9.20345 29.0245 9.20402C29.3662 9.20427 29.6503 9.29031 29.8023 9.61639C29.8766 9.77178 29.8977 9.94791 29.8621 10.1168C29.8265 10.2857 29.7364 10.4377 29.606 10.5486C28.9199 11.2276 28.2352 11.9093 27.5194 12.5551C25.6197 14.2694 23.7034 15.9647 21.7952 17.6694C21.6146 17.8309 21.4456 18.0057 21.2772 18.1685C21.2964 18.2732 21.3235 18.3764 21.3583 18.4769C22.8217 21.6478 23.7325 24.9946 24.4289 28.4096C24.5478 28.8913 24.6404 29.3793 24.7061 29.8712C24.7784 30.658 24.5176 30.769 23.7726 30.8924C22.7298 31.0661 22.0943 30.5098 21.43 29.8959C19.6984 28.2958 17.9659 26.6956 16.4518 24.8725C15.9355 24.2509 15.4273 23.6231 14.8668 22.9391ZM5.93221 27.7681L6.02778 27.8572C6.15305 27.767 6.28184 27.6818 6.40308 27.586C8.96955 25.5551 11.5364 23.5241 14.1035 21.4932C14.7411 20.9902 15.0963 20.9951 15.7031 21.5282C16.1099 21.8815 16.4936 22.2613 16.8515 22.6653C18.5152 24.5657 20.3878 26.2453 22.2323 27.9548C22.3071 28.0242 22.3946 28.0794 22.5418 28.1908C22.5191 28.0221 22.5163 27.9352 22.4951 27.8533C21.7335 24.9038 20.9613 21.957 19.8694 19.1103C19.579 18.3533 19.6542 17.7625 20.2971 17.1786C22.4239 15.247 24.5063 13.2647 26.6042 11.3015C26.7767 11.1402 26.9479 10.9777 27.2197 10.7216C26.8416 10.7225 26.6201 10.7205 26.3987 10.7236C23.9903 10.7628 21.5807 10.768 19.1742 10.8587C18.1376 10.8978 17.4857 10.4549 17.0353 9.57687C17.0249 9.55678 17.0155 9.53615 17.0068 9.5155C16.5757 8.49899 16.1179 7.49327 15.7224 6.4628C15.3104 5.38969 14.9608 4.29103 14.5783 3.20546C14.5057 2.99911 14.4071 2.80217 14.2714 2.48639C13.9905 3.20021 13.7288 3.79 13.524 4.39963C12.8774 6.32539 12.2365 8.25342 11.6242 10.1907C11.2294 11.4399 10.3285 11.9716 9.14816 11.8919C7.39126 11.7739 5.63073 11.7071 3.87139 11.63C3.38919 11.6089 2.90603 11.629 2.33844 11.6304C2.94247 12.1812 3.50617 12.686 4.05882 13.2022C5.5354 14.5796 7.01442 15.955 8.47524 17.3494C8.70953 17.5906 8.90192 17.8702 9.04431 18.1765C9.2439 18.5745 9.1777 18.8954 8.80551 19.1125C8.53322 19.2714 8.45154 19.4941 8.36886 19.7495C7.9241 21.1238 7.46193 22.4917 7.04128 23.8725C6.64881 25.1645 6.30016 26.4694 5.93208 27.7681L5.93221 27.7681Z" fill="#6F688F"/>
</svg>
