<svg width="25" height="25" viewBox="0 0 25 25" fill="none" xmlns="http://www.w3.org/2000/svg">
<path d="M8.00714 8.84588C8.15509 8.64169 8.30365 8.43804 8.45284 8.23503C8.83362 7.71489 9.22722 7.17693 9.59809 6.63418C10.0772 5.93249 10.0445 5.60862 9.43197 4.98579C9.38102 4.93411 9.32727 4.88555 9.27342 4.83721C9.23207 4.79968 9.18991 4.76211 9.14939 4.72279L8.67011 4.25508C8.20942 3.80555 7.73303 3.3407 7.26842 2.87948C6.9154 2.52908 6.56373 2.17736 6.21341 1.82421C5.74549 1.35441 5.26165 0.868443 4.78092 0.395973C4.24344 -0.133078 3.93573 -0.132167 3.41086 0.399779C2.9108 0.906443 2.40587 1.42545 1.91759 1.92721C1.48099 2.37592 1.04363 2.82372 0.605517 3.27072C0.413286 3.46359 0.260236 3.69737 0.156023 3.95716C0.0518088 4.21695 -0.00130887 4.4972 2.44942e-05 4.78022C0.0037422 5.22457 0.0560228 5.6669 0.15579 6.09806C0.409336 7.27455 0.953328 8.32945 1.47955 9.35024L1.60978 9.60346C2.97498 12.2634 4.45223 14.3855 6.1272 16.091C6.43729 16.4065 6.73082 16.7557 7.01507 17.0934C7.39403 17.5648 7.80251 18.0076 8.23763 18.4188C9.51229 19.5676 10.9113 20.7344 12.5144 21.9863C13.834 23.0168 14.995 23.7625 16.1671 24.3333C17.0239 24.7638 17.9567 24.9912 18.9021 25C19.3071 24.9999 19.711 24.9556 20.1077 24.8676L20.1704 24.8538C20.7726 24.7211 21.3954 24.584 21.9195 24.1315C22.1798 23.9068 22.4637 23.7005 22.7383 23.5008C22.8823 23.3961 23.0262 23.2914 23.1678 23.1836C23.2947 23.0872 23.4245 22.9943 23.5543 22.9013C23.8747 22.6848 24.1785 22.4408 24.4627 22.1716C25.2488 21.385 25.0841 20.8402 24.5338 20.1649C23.9322 19.4266 23.3451 18.6512 22.7766 17.9016C22.5505 17.603 22.3238 17.3048 22.0966 17.0072C21.918 16.774 21.7404 16.5399 21.564 16.3046C21.2229 15.8523 20.8704 15.3846 20.5106 14.9356C19.8269 14.0821 19.5374 14.0547 18.6887 14.7631C18.102 15.2532 17.5103 15.7565 16.9372 16.2437C16.5764 16.5506 16.2152 16.857 15.8537 17.163C15.7449 17.2549 15.6309 17.3403 15.5206 17.423L15.4516 17.4747C15.2306 17.2259 15.01 16.9771 14.7901 16.7284C12.5471 14.1989 10.2298 11.5845 7.69632 9.25278C7.72227 9.21937 7.74728 9.18727 7.77116 9.15642C7.85922 9.04247 7.93479 8.94534 8.00714 8.84588ZM6.54117 9.58986C8.11226 11.4082 9.68246 13.2277 11.2518 15.0482L13.4684 17.6179C13.5614 17.7261 13.6562 17.8325 13.7509 17.939C13.9097 18.1172 14.074 18.3027 14.2271 18.4908C14.7203 19.0971 15.2888 19.1734 16.1283 18.7453C16.3931 18.5955 16.6405 18.4121 16.8652 18.1994C16.9411 18.1331 17.0169 18.067 17.0936 18.0035C17.6789 17.5193 18.2616 17.0319 18.8559 16.5353L19.5071 15.9909L23.4872 21.2266C23.2832 21.38 23.0787 21.539 22.8801 21.6937C22.33 22.1403 21.7552 22.5506 21.159 22.9222C20.6864 23.2026 20.0899 23.2921 19.5195 23.3599C18.3102 23.504 17.2102 23.2821 16.2484 22.702L16.0624 22.5895C15.1094 22.0149 14.1239 21.4208 13.2199 20.7408C11.9719 19.816 10.7714 18.8189 9.62351 17.7541C9.06504 17.2106 8.53229 16.6371 8.02729 16.0358C7.66749 15.6215 7.29571 15.1933 6.91099 14.7923C5.92017 13.7604 4.98556 12.5128 3.96993 10.8658C3.06851 9.40464 2.37816 7.87297 1.82156 6.56761C1.60998 6.07119 1.40337 5.48095 1.47417 4.86625C1.48829 4.62759 1.56459 4.39811 1.69433 4.20407C2.30964 3.45137 2.9544 2.70294 3.57788 1.97932C3.75546 1.77334 3.9329 1.56717 4.11019 1.36075C5.51457 3.07231 7.04743 4.68098 8.50101 6.16767C8.0369 6.85395 7.49568 7.47564 6.8897 8.01848C6.85177 8.05189 6.81269 8.08365 6.77362 8.11561C6.69697 8.1761 6.62344 8.24107 6.55336 8.31019C6.14291 8.72931 6.13919 9.12431 6.54117 9.58942V9.58986Z" fill="#E0DBF5"/>
</svg>
