<svg width="24" height="24" viewBox="0 0 24 24" fill="none" xmlns="http://www.w3.org/2000/svg">
<path d="M18.9699 7.59586C20.1686 7.98091 21.1634 8.12771 22.1028 8.05906C23.2845 7.97228 23.9111 7.31008 23.915 6.14423C23.9167 5.61511 23.8911 5.07822 23.8663 4.55906C23.8592 4.41262 23.8525 4.26622 23.846 4.11984C23.8465 3.95348 23.7904 3.79165 23.6866 3.66C23.5827 3.52834 23.4368 3.43436 23.2723 3.39293C23.0486 3.32719 22.8214 3.27386 22.5917 3.23325C20.1534 2.80172 18.2768 1.87931 16.8545 0.413213C16.6129 0.168994 16.287 0.0216732 15.9405 0H15.9302C15.1968 0.00939142 14.4545 0.0857164 13.7365 0.159627L13.3719 0.196541C12.9538 0.238333 12.7021 0.506465 12.6817 0.931895C12.6721 1.12789 12.6681 1.2779 12.6682 1.41812C12.6686 2.40628 12.67 3.39444 12.6722 4.3826C12.6765 6.7283 12.681 9.15388 12.6662 11.5389C12.6593 12.6587 12.5984 13.7876 12.4849 14.8942C12.4598 15.1765 12.3766 15.4509 12.2405 15.7011C12.1045 15.9512 11.9181 16.1718 11.6929 16.3499C11.4478 16.5358 11.1669 16.6715 10.8671 16.7489C10.5673 16.8263 10.2545 16.8438 9.94759 16.8002C8.7159 16.6479 8.04359 15.9317 7.83154 14.5463C7.71381 13.7775 7.86993 13.0837 8.28404 12.5397C8.69106 12.0044 9.3101 11.6648 10.0739 11.5577C10.786 11.4579 11.0034 11.1865 10.9353 10.4819C10.8772 9.88165 10.7841 9.2757 10.6941 8.68987C10.6355 8.30829 10.5748 7.91358 10.5246 7.52534C10.4735 7.12996 10.2283 6.89519 9.79589 6.82767C9.52695 6.78679 9.25341 6.78409 8.9837 6.81974C5.70514 7.2524 3.29393 8.91612 1.8171 11.7647C0.752068 13.8182 0.624173 16.1753 1.46507 18.2317C2.28149 20.2288 3.91798 21.7394 6.07289 22.4852C7.39758 22.9522 8.79442 23.193 10.2024 23.1971C11.7108 23.1971 13.2386 22.9159 14.8084 22.3536C16.6633 21.689 17.7519 20.332 18.0436 18.3204C18.4504 15.5153 18.5148 13.1573 18.2463 10.8998C18.149 10.0818 18.1145 9.25788 18.0778 8.3856C18.0629 8.02563 18.0472 7.65474 18.0268 7.27514C18.1314 7.31102 18.2276 7.34425 18.3177 7.37534C18.5684 7.46211 18.7664 7.53059 18.9699 7.59586ZM16.3984 8.3392C16.4165 9.98129 16.4352 11.6794 16.4132 13.3486L16.412 13.4432C16.3928 14.9526 16.3722 16.5132 16.0762 18.0295C15.8053 19.4177 15.0731 20.2915 13.8379 20.7007C11.2243 21.5663 8.82173 21.5721 6.49239 20.7181C3.24251 19.5265 2.26278 16.5932 2.73351 14.2147C3.35151 11.0926 5.15142 9.10394 8.08331 8.30379C8.39036 8.22011 8.75496 8.12215 9.12561 8.0303C9.21425 8.01084 9.30393 7.9963 9.39425 7.98674C9.43099 7.98195 9.47102 7.9767 9.51535 7.97069L9.64583 10.2797C9.61148 10.2966 9.57952 10.3132 9.5492 10.3289C9.48191 10.3686 9.4096 10.3994 9.33409 10.4206C7.24884 10.8646 6.05456 12.8097 6.42982 15.1507C6.53598 15.8285 6.82527 16.4663 7.26773 16.9979C7.71019 17.5295 8.28974 17.9359 8.94645 18.1747C9.63301 18.432 10.3767 18.5078 11.1027 18.3943C11.8286 18.2809 12.5113 17.9822 13.0819 17.5285C13.8921 16.8794 14.2867 16.0689 14.2232 15.1848C14.1501 14.165 14.1982 13.131 14.245 12.131C14.2745 11.4956 14.3052 10.8386 14.3046 10.1905C14.303 8.52382 14.2963 6.82935 14.2898 5.19064C14.2866 4.41691 14.2837 3.64326 14.2811 2.86965C14.2801 2.58791 14.2804 2.30616 14.2811 2.017V1.66706C14.6576 1.52779 15.0271 1.55192 15.3852 1.57558C15.5196 1.58441 15.6576 1.59343 15.7933 1.59343H15.7955L15.9033 1.69807C17.3247 3.0786 17.6267 3.37152 22.1918 4.84419L22.1264 6.08929C22.0976 6.10328 22.0715 6.11745 22.0467 6.13079C22.008 6.15506 21.9654 6.1729 21.9208 6.18357C20.5664 6.08439 19.005 5.91351 17.6127 5.13731C17.4156 5.03802 17.2077 4.96098 16.9929 4.90775C16.8747 4.87329 16.7524 4.83759 16.6187 4.7926C16.6049 4.78793 16.5902 4.78631 16.5757 4.78788C16.5612 4.78945 16.5472 4.79416 16.5348 4.80169C16.5223 4.8092 16.5118 4.81934 16.5038 4.83135C16.4958 4.84336 16.4907 4.85698 16.4889 4.87115C16.4715 5.00019 16.4527 5.11308 16.4357 5.21554C16.401 5.38894 16.3813 5.56481 16.3765 5.74142C16.3792 6.6074 16.3888 7.48777 16.3983 8.3392H16.3984Z" fill="#E0DBF5"/>
</svg>
